<svg width="20" height="21" viewBox="0 0 20 21" fill="none" xmlns="http://www.w3.org/2000/svg">
<path d="M1.66667 18.8333H18.3333" stroke="#939393" stroke-width="1.5" stroke-miterlimit="10" stroke-linecap="round" stroke-linejoin="round"/>
<path d="M12.5083 18.825L2.50834 18.8417L2.5 6.39166C2.5 5.83332 2.78335 5.31663 3.24168 5.0083L6.57501 2.78331C7.13335 2.40831 7.86665 2.40831 8.42499 2.78331L11.7583 5.0083C12.225 5.31663 12.5 5.83332 12.5 6.39166L12.5083 18.825Z" stroke="#939393" stroke-width="1.5" stroke-miterlimit="10" stroke-linecap="round" stroke-linejoin="round"/>
<path d="M16.65 18.8417V15.5" stroke="#939393" stroke-width="1.5" stroke-miterlimit="10" stroke-linecap="round" stroke-linejoin="round"/>
<path d="M16.6667 10.5C15.75 10.5 15 11.25 15 12.1667V13.8333C15 14.75 15.75 15.5 16.6667 15.5C17.5833 15.5 18.3333 14.75 18.3333 13.8333V12.1667C18.3333 11.25 17.5833 10.5 16.6667 10.5Z" stroke="#939393" stroke-width="1.5" stroke-miterlimit="10" stroke-linecap="round" stroke-linejoin="round"/>
<path d="M2.5 12.1667H12.5" stroke="#939393" stroke-width="1.5" stroke-miterlimit="10" stroke-linecap="round" stroke-linejoin="round"/>
<path d="M7.5 18.8333V15.7083" stroke="#939393" stroke-width="1.5" stroke-miterlimit="10" stroke-linecap="round" stroke-linejoin="round"/>
<path d="M7.5 9.25C8.19036 9.25 8.75 8.69036 8.75 8C8.75 7.30964 8.19036 6.75 7.5 6.75C6.80964 6.75 6.25 7.30964 6.25 8C6.25 8.69036 6.80964 9.25 7.5 9.25Z" stroke="#939393" stroke-width="1.5" stroke-miterlimit="10" stroke-linecap="round" stroke-linejoin="round"/>
</svg>
