<svg width="20" height="21" viewBox="0 0 20 21" fill="none" xmlns="http://www.w3.org/2000/svg">
<path d="M10.8333 18.8333H4.16666C2.49999 18.8333 1.66666 18 1.66666 16.3333V9.66667C1.66666 8.00001 2.49999 7.16667 4.16666 7.16667H8.33332V16.3333C8.33332 18 9.16666 18.8333 10.8333 18.8333Z" stroke="#939393" stroke-width="1.5" stroke-miterlimit="10" stroke-linecap="round" stroke-linejoin="round"/>
<path d="M8.42498 3.83333C8.35831 4.08333 8.33332 4.35833 8.33332 4.66666V7.16666H4.16666V5.49999C4.16666 4.58333 4.91666 3.83333 5.83332 3.83333H8.42498Z" stroke="#939393" stroke-width="1.5" stroke-miterlimit="10" stroke-linecap="round" stroke-linejoin="round"/>
<path d="M11.6667 7.16667V11.3333" stroke="#939393" stroke-width="1.5" stroke-miterlimit="10" stroke-linecap="round" stroke-linejoin="round"/>
<path d="M15 7.16667V11.3333" stroke="#939393" stroke-width="1.5" stroke-miterlimit="10" stroke-linecap="round" stroke-linejoin="round"/>
<path d="M14.1667 14.6667H12.5C12.0417 14.6667 11.6667 15.0417 11.6667 15.5V18.8333H15V15.5C15 15.0417 14.625 14.6667 14.1667 14.6667Z" stroke="#939393" stroke-width="1.5" stroke-miterlimit="10" stroke-linecap="round" stroke-linejoin="round"/>
<path d="M5 11.3333V14.6667" stroke="#939393" stroke-width="1.5" stroke-miterlimit="10" stroke-linecap="round" stroke-linejoin="round"/>
<path d="M8.33334 16.3333V4.66667C8.33334 3.00001 9.16668 2.16667 10.8333 2.16667H15.8333C17.5 2.16667 18.3333 3.00001 18.3333 4.66667V16.3333C18.3333 18 17.5 18.8333 15.8333 18.8333H10.8333C9.16668 18.8333 8.33334 18 8.33334 16.3333Z" stroke="#939393" stroke-width="1.5" stroke-miterlimit="10" stroke-linecap="round" stroke-linejoin="round"/>
</svg>
