<svg width="20" height="21" viewBox="0 0 20 21" fill="none" xmlns="http://www.w3.org/2000/svg">
<path d="M11.4417 3.42501L12.9083 6.35835C13.1083 6.76668 13.6417 7.15835 14.0917 7.23335L16.75 7.67501C18.45 7.95835 18.85 9.19168 17.625 10.4083L15.5583 12.475C15.2083 12.825 15.0167 13.5 15.125 13.9833L15.7167 16.5417C16.1833 18.5667 15.1083 19.35 13.3167 18.2917L10.825 16.8167C10.375 16.55 9.63333 16.55 9.175 16.8167L6.68333 18.2917C4.9 19.35 3.81667 18.5583 4.28333 16.5417L4.875 13.9833C4.98333 13.5 4.79167 12.825 4.44167 12.475L2.375 10.4083C1.15833 9.19168 1.55 7.95835 3.25 7.67501L5.90833 7.23335C6.35 7.15835 6.88333 6.76668 7.08333 6.35835L8.55 3.42501C9.35 1.83335 10.65 1.83335 11.4417 3.42501Z" fill="#FFD33C"/>
</svg>
