<svg width="40" height="40" viewBox="0 0 40 40" fill="none" xmlns="http://www.w3.org/2000/svg">
<rect x="0.5" y="0.5" width="39" height="39" rx="11.5" stroke="#ECECEC"/>
<g clip-path="url(#clip0_718_4993)">
<path d="M13 18.5C11.9 18.5 11 19.4 11 20.5C11 21.6 11.9 22.5 13 22.5C14.1 22.5 15 21.6 15 20.5C15 19.4 14.1 18.5 13 18.5Z" stroke="#101010" stroke-width="1.5"/>
<path d="M27 18.5C25.9 18.5 25 19.4 25 20.5C25 21.6 25.9 22.5 27 22.5C28.1 22.5 29 21.6 29 20.5C29 19.4 28.1 18.5 27 18.5Z" stroke="#101010" stroke-width="1.5"/>
<path d="M20 18.5C18.9 18.5 18 19.4 18 20.5C18 21.6 18.9 22.5 20 22.5C21.1 22.5 22 21.6 22 20.5C22 19.4 21.1 18.5 20 18.5Z" stroke="#101010" stroke-width="1.5"/>
</g>
<defs>
<clipPath id="clip0_718_4993">
<rect width="24" height="24" fill="white" transform="translate(8 8)"/>
</clipPath>
</defs>
</svg>
